<svg width="177" height="117" viewBox="0 0 177 117" fill="none" xmlns="http://www.w3.org/2000/svg">
<g clip-path="url(#clip0_1004_511)">
<path fill-rule="evenodd" clip-rule="evenodd" d="M0 117H176.475V0H0V117Z" fill="#00337F"/>
<path fill-rule="evenodd" clip-rule="evenodd" d="M22.2832 21.8132H25.7068L30.5658 29.724H30.6011V21.8132H33.1305V33.1996H29.8246L24.8362 25.1016H24.8009V33.1996H22.2832V21.8132Z" fill="white"/>
<path fill-rule="evenodd" clip-rule="evenodd" d="M42.7772 25.125L41.3889 28.6357H44.1772L42.7772 25.125ZM41.8007 21.8132H43.8831L48.8714 33.1996H46.0243L45.0361 30.7889H40.5889L39.6359 33.1996H36.8594L41.8007 21.8132Z" fill="white"/>
<path fill-rule="evenodd" clip-rule="evenodd" d="M53.3312 24.0367H50.0605V21.8132H59.1078V24.0367H55.8489V33.1996H53.3312V24.0367Z" fill="white"/>
<path fill-rule="evenodd" clip-rule="evenodd" d="M62.9424 33.1996H65.4601V21.8132H62.9424V33.1996Z" fill="white"/>
<path fill-rule="evenodd" clip-rule="evenodd" d="M72.3548 27.5123C72.3495 28.0106 72.4331 28.5058 72.6018 28.9751C72.7551 29.4113 72.9997 29.8101 73.3195 30.1453C73.6492 30.4835 74.0514 30.7435 74.496 30.9059C75.432 31.2808 76.4776 31.2808 77.4137 30.9059C77.8567 30.7404 78.2582 30.4808 78.5902 30.1453C78.9059 29.807 79.15 29.4091 79.3079 28.9751C79.6369 28.0273 79.6369 26.9972 79.3079 26.0495C79.1515 25.6148 78.9072 25.2165 78.5902 24.8792C78.2582 24.5437 77.8567 24.2842 77.4137 24.1186C76.4776 23.7437 75.432 23.7437 74.496 24.1186C74.0514 24.281 73.6492 24.541 73.3195 24.8792C72.9985 25.2135 72.7538 25.6127 72.6018 26.0495C72.4331 26.5187 72.3495 27.014 72.3548 27.5123V27.5123ZM69.7312 27.5123C69.7187 26.6633 69.8746 25.8203 70.19 25.0314C70.4801 24.321 70.917 23.6791 71.4724 23.1473C72.0409 22.6289 72.7093 22.2308 73.4371 21.9771C75.0384 21.4305 76.7772 21.4305 78.3784 21.9771C79.1062 22.2386 79.771 22.6485 80.3302 23.1805C80.8894 23.7125 81.3306 24.3549 81.6256 25.0665C82.2373 26.6604 82.2373 28.4226 81.6256 30.0166C81.3351 30.7308 80.8954 31.3756 80.3356 31.9082C79.7758 32.4408 79.1087 32.849 78.3784 33.106C76.7798 33.6682 75.0357 33.6682 73.4371 33.106C72.7115 32.8477 72.0439 32.4501 71.4724 31.9357C70.9194 31.3975 70.483 30.7523 70.19 30.04C69.8759 29.2548 69.72 28.4158 69.7312 27.5708V27.5123Z" fill="white"/>
<path fill-rule="evenodd" clip-rule="evenodd" d="M86.3789 21.8132H89.8025L94.6732 29.724H94.7085V21.8132H97.2262V33.1996H93.9203L88.9319 25.1016H88.8966V33.1996H86.3789V21.8132Z" fill="white"/>
<path fill-rule="evenodd" clip-rule="evenodd" d="M106.873 25.125L105.485 28.6357H108.238L106.873 25.125ZM105.885 21.8132H107.967L112.944 33.1996H110.12L109.132 30.7889H104.708L103.755 33.1996H100.955L105.885 21.8132Z" fill="white"/>
<path fill-rule="evenodd" clip-rule="evenodd" d="M116.791 21.8132H119.32V30.8825H123.991V33.1996H116.791V21.8132Z" fill="white"/>
<path fill-rule="evenodd" clip-rule="evenodd" d="M22.2832 42.655H24.8009V46.903H29.6952V42.655H32.2246V54.0297H29.6952V49.1147H24.8009V54.0297H22.2832V42.655Z" fill="#00A6CC"/>
<path fill-rule="evenodd" clip-rule="evenodd" d="M46.7773 49.6414C46.7851 50.2708 46.6815 50.8966 46.4714 51.4903C46.2767 52.0535 45.9581 52.5664 45.5389 52.9915C45.1196 53.4167 44.6102 53.7434 44.0478 53.9478C43.3819 54.1933 42.6755 54.3123 41.9654 54.2989C41.2477 54.3122 40.5337 54.1932 39.8595 53.9478C39.2904 53.7354 38.776 53.3996 38.3536 52.9648C37.9511 52.5397 37.639 52.0382 37.4359 51.4903C37.2289 50.8878 37.1254 50.2548 37.13 49.618V42.5966H39.6595V49.4892C39.653 49.8242 39.7088 50.1575 39.8242 50.4722C39.9312 50.7602 40.0907 51.026 40.2948 51.2563C40.509 51.4706 40.76 51.645 41.036 51.7712C41.3312 51.8899 41.647 51.9495 41.9654 51.9467C42.2737 51.9557 42.5803 51.8987 42.8644 51.7796C43.1486 51.6604 43.4037 51.482 43.6125 51.2563C43.8204 51.0266 43.9839 50.7608 44.0949 50.4722C44.2048 50.1561 44.2605 49.8238 44.2596 49.4892V42.6551H46.7773V49.6765" fill="#00A6CC"/>
<path fill-rule="evenodd" clip-rule="evenodd" d="M51.6953 42.655H55.5072L58.1425 50.086H58.1778L60.825 42.655H64.6251V54.0297H62.1073V45.3115H62.072L59.0602 54.0297H57.1425L54.2483 45.3115H54.213V54.0297H51.6953V42.655Z" fill="#00A6CC"/>
<path fill-rule="evenodd" clip-rule="evenodd" d="M74.2723 45.9668L72.9428 49.5009H75.7429L74.2723 45.9668ZM73.3076 42.655H75.39L80.3666 54.0297H77.5194L76.5312 51.619H72.0958L71.1428 54.0297H68.3545L73.3076 42.655Z" fill="#00A6CC"/>
<path fill-rule="evenodd" clip-rule="evenodd" d="M84.0967 42.655H87.5321L92.391 50.5658H92.4263V42.655H94.944V54.0297H91.6498L86.6497 45.9317H86.6261V54.0297H84.0967V42.655Z" fill="#00A6CC"/>
<path fill-rule="evenodd" clip-rule="evenodd" d="M24.4943 65.7087H21.2236V63.4852H30.2827V65.7087H27.012V74.8716H24.4943V65.7087Z" fill="#00A6CC"/>
<path fill-rule="evenodd" clip-rule="evenodd" d="M36.6594 68.2013H38.1536H38.8712C39.1049 68.1836 39.3347 68.1324 39.5536 68.0491C39.7576 67.9743 39.9368 67.8447 40.0713 67.6747C40.2164 67.4613 40.2867 67.2063 40.2713 66.9491C40.2823 66.7067 40.2209 66.4664 40.0948 66.2587C39.978 66.0926 39.8199 65.9595 39.6359 65.8725C39.4402 65.7756 39.2294 65.7123 39.0124 65.6853C38.7774 65.6682 38.5415 65.6682 38.3065 65.6853H36.6594V68.2013ZM34.1417 63.5203H38.5771C39.131 63.5177 39.6834 63.5766 40.2242 63.6959C40.7173 63.7861 41.186 63.9774 41.6007 64.2576C41.999 64.5238 42.3228 64.8862 42.5419 65.3108C42.7841 65.8349 42.9009 66.4077 42.8831 66.9842C42.9044 67.7197 42.6856 68.4423 42.2595 69.0438C41.8052 69.6227 41.1433 70.0043 40.4124 70.1088L43.3184 74.895H40.2948L37.9418 70.3428H36.6594V74.895H34.1182V63.4852L34.1417 63.5203Z" fill="#00A6CC"/>
<path fill-rule="evenodd" clip-rule="evenodd" d="M51.9422 66.797L50.5892 70.3311H53.3893L51.9422 66.797ZM50.9657 63.4852H53.0481L58.0247 74.895H55.1894L54.2011 72.4843H49.7539L48.801 74.895H46.0244L50.9657 63.5086V63.4852Z" fill="#00A6CC"/>
<path fill-rule="evenodd" clip-rule="evenodd" d="M61.8604 63.4852H69.5429V65.8023H64.3781V68.1194H69.1546V70.4364H64.3781V74.8716H61.8604V63.4852Z" fill="#00A6CC"/>
<path fill-rule="evenodd" clip-rule="evenodd" d="M74.0254 63.4852H81.7079V65.8023H76.5549V68.1194H81.3197V70.4364H76.5549V74.8716H74.0254V63.4852Z" fill="#00A6CC"/>
<path fill-rule="evenodd" clip-rule="evenodd" d="M86.0723 74.8716H88.59V63.4852H86.0723V74.8716Z" fill="#00A6CC"/>
<path fill-rule="evenodd" clip-rule="evenodd" d="M100.956 66.4459C100.711 66.1492 100.401 65.9128 100.05 65.7554C99.6616 65.5984 99.2451 65.5227 98.8262 65.5331C98.3715 65.5289 97.9215 65.6248 97.5085 65.814C97.1086 65.9898 96.7515 66.2493 96.4614 66.5746C96.1556 66.916 95.9198 67.3135 95.7673 67.7448C95.4221 68.6898 95.4221 69.7255 95.7673 70.6704C95.9163 71.1008 96.1481 71.4983 96.4497 71.8407C96.7334 72.1628 97.0822 72.4219 97.4732 72.6013C97.8705 72.7878 98.3046 72.8837 98.7438 72.8822C99.2115 72.887 99.6728 72.7743 100.085 72.5545C100.486 72.3418 100.825 72.0318 101.073 71.6534L103.167 73.2215C102.705 73.876 102.07 74.3904 101.332 74.7077C100.611 75.0299 99.8289 75.1973 99.0379 75.1992C98.1918 75.2079 97.3509 75.0652 96.5555 74.7779C95.8331 74.5202 95.1693 74.1225 94.6025 73.6077C94.0495 73.0694 93.6131 72.4243 93.3202 71.7119C92.7084 70.118 92.7084 68.3558 93.3202 66.7618C93.6103 66.0514 94.0472 65.4096 94.6025 64.8778C95.1668 64.3597 95.8313 63.9615 96.5555 63.7075C97.345 63.3883 98.186 63.2138 99.0379 63.1926C99.3772 63.1963 99.7156 63.2277 100.05 63.2862C100.4 63.3455 100.742 63.4396 101.073 63.5671C101.421 63.7013 101.753 63.874 102.062 64.082C102.376 64.3027 102.657 64.5666 102.897 64.8661L100.956 66.4459Z" fill="#00A6CC"/>
<path fill-rule="evenodd" clip-rule="evenodd" d="M107.227 63.4852H109.744V68.213L114.191 63.4852H117.486L112.403 68.7747L117.921 74.8716H114.403L109.744 69.4651V74.8716H107.227V63.4852Z" fill="#00A6CC"/>
<path fill-rule="evenodd" clip-rule="evenodd" d="M121.355 74.8716H123.873V63.4852H121.355V74.8716Z" fill="#00A6CC"/>
<path fill-rule="evenodd" clip-rule="evenodd" d="M128.756 63.4852H132.179L137.05 71.396H137.085V63.4852H139.603V74.8716H136.309L131.309 66.7619H131.274V74.8716H128.756V63.4852Z" fill="#00A6CC"/>
<path fill-rule="evenodd" clip-rule="evenodd" d="M154.874 74.0641C154.132 74.4499 153.34 74.7333 152.521 74.9067C151.708 75.0745 150.881 75.1608 150.051 75.1641C149.208 75.1729 148.371 75.0302 147.58 74.7428C146.856 74.488 146.192 74.0899 145.627 73.5726C145.067 73.038 144.626 72.3921 144.333 71.6768C143.721 70.0829 143.721 68.3206 144.333 66.7267C144.623 66.0134 145.064 65.3707 145.627 64.8426C146.189 64.3218 146.854 63.9233 147.58 63.6724C148.371 63.385 149.208 63.2423 150.051 63.2511C150.906 63.2451 151.757 63.3593 152.58 63.5905C153.341 63.8089 154.036 64.2109 154.604 64.7607L152.827 66.6799C152.496 66.3348 152.095 66.0636 151.651 65.8841C151.139 65.6811 150.59 65.5854 150.039 65.6033C149.538 65.5957 149.042 65.6913 148.58 65.8841C148.137 66.0497 147.735 66.3093 147.404 66.6448C147.086 66.9821 146.842 67.3803 146.686 67.815C146.357 68.7628 146.357 69.7929 146.686 70.7406C146.844 71.1746 147.088 71.5726 147.404 71.9109C147.735 72.2464 148.137 72.5059 148.58 72.6715C149.042 72.8644 149.538 72.96 150.039 72.9524C150.52 72.9639 151.001 72.9007 151.462 72.7651C151.793 72.6741 152.112 72.5486 152.415 72.3906V70.4364H150.357V68.0959H154.839V74.0407" fill="#00A6CC"/>
<path fill-rule="evenodd" clip-rule="evenodd" d="M22.2832 84.327H24.8009V88.575H29.6952V84.327H32.2246V95.7017H29.6952V90.7867H24.8009V95.7017H22.2832V84.327Z" fill="white"/>
<path fill-rule="evenodd" clip-rule="evenodd" d="M39.1423 90.0145C39.1362 90.5166 39.2198 91.0159 39.3894 91.489C39.5427 91.9252 39.7873 92.324 40.1071 92.6592C40.4242 92.9852 40.8044 93.244 41.2247 93.4198C41.6916 93.6077 42.1919 93.6993 42.6954 93.689C43.1951 93.7003 43.6918 93.6087 44.1542 93.4198C44.595 93.2498 44.9956 92.9908 45.3307 92.6592C45.6464 92.3209 45.8905 91.923 46.0484 91.489C46.3774 90.5372 46.3774 89.5034 46.0484 88.5517C45.8888 88.1185 45.6449 87.7208 45.3307 87.3814C44.9923 87.0538 44.5926 86.7954 44.1542 86.6208C43.6902 86.4375 43.1946 86.346 42.6954 86.3516C42.1782 86.3336 41.6624 86.4171 41.1777 86.5974C40.7593 86.7768 40.3797 87.0351 40.06 87.358C39.7416 87.6943 39.4972 88.0928 39.3423 88.5283C39.1878 89.008 39.1201 89.5112 39.1423 90.0145V90.0145ZM36.5187 90.0145C36.5063 89.1693 36.6622 88.3301 36.9776 87.5453C37.2675 86.8313 37.7043 86.1856 38.26 85.6495C38.8315 85.1352 39.499 84.7375 40.2247 84.4793C41.8233 83.9171 43.5674 83.9171 45.166 84.4793C45.8898 84.7341 46.5542 85.1322 47.119 85.6495C47.6782 86.1826 48.1156 86.8292 48.4014 87.5453C48.7263 88.3277 48.8865 89.168 48.872 90.0145C48.8851 90.8645 48.7251 91.7085 48.4014 92.4954C48.1127 93.2075 47.6749 93.8502 47.1171 94.3809C46.5592 94.9116 45.8941 95.318 45.166 95.5731C43.5672 96.1343 41.8235 96.1343 40.2247 95.5731C39.4891 95.3157 38.8181 94.9033 38.2577 94.364C37.6972 93.8247 37.2606 93.1713 36.9776 92.4485C36.6533 91.6771 36.4815 90.8506 36.4717 90.0145H36.5187Z" fill="white"/>
<path fill-rule="evenodd" clip-rule="evenodd" d="M55.378 86.5388H52.1191V84.327H61.1664V86.5388H57.8958V95.7017H55.378V86.5388Z" fill="white"/>
<path fill-rule="evenodd" clip-rule="evenodd" d="M65.1191 84.327H67.6486V93.3963H72.3193V95.7017H65.1191V84.327Z" fill="white"/>
<path fill-rule="evenodd" clip-rule="evenodd" d="M76.2607 95.7017H78.7785V84.327H76.2607V95.7017Z" fill="white"/>
<path fill-rule="evenodd" clip-rule="evenodd" d="M83.6611 84.327H87.0965L91.9555 92.2378H91.9908V84.327H94.5085V95.7017H91.2143L86.2141 87.6037H86.1906V95.7017H83.6611V84.327Z" fill="white"/>
<path fill-rule="evenodd" clip-rule="evenodd" d="M99.5205 84.327H107.297V86.6441H102.038V88.7622H107.003V91.0793H102.038V93.3963H107.58V95.7017H99.5205V84.327Z" fill="white"/>
</g>
<defs>
<clipPath id="clip0_1004_511">
<rect width="176.475" height="117" fill="white"/>
</clipPath>
</defs>
</svg>
